<svg width="94" height="19" viewBox="0 0 94 19" fill="none" xmlns="http://www.w3.org/2000/svg">
<g id="Group">
<path id="Vector" fill-rule="evenodd" clip-rule="evenodd" d="M20.2332 17.8842H15.3217L14.6277 16.9766C13.6667 17.3503 12.8126 17.6173 12.0652 17.8308C11.3178 17.991 10.517 18.0977 9.60942 18.0977C6.61982 18.0977 4.27085 17.3503 2.6159 15.9089C0.854171 14.4141 0 12.1185 0 9.18234C0 6.19274 0.800785 3.89715 2.34897 2.34897C3.95054 0.800785 6.35289 0 9.60942 0C12.7592 0 15.1615 0.854171 16.8165 2.50913C18.2579 3.95054 18.9519 5.81904 18.9519 8.06124C18.9519 9.71619 18.8985 10.9441 18.7384 11.6915C18.5248 12.8659 17.991 13.987 17.2436 15.0014L20.2332 17.8842ZM14.6277 9.02218C14.6277 7.42061 14.3074 6.13935 13.6133 5.12502C12.7592 3.84377 11.3711 3.20314 9.55603 3.20314C7.84769 3.20314 6.51305 3.68361 5.65888 4.69794C4.80471 5.65888 4.37762 7.10029 4.37762 8.96879C4.37762 11.0508 4.85809 12.599 5.87242 13.56C6.77998 14.4141 8.11462 14.8412 9.87635 14.8412C11.4779 14.8412 12.6524 14.3607 13.4532 13.3998C14.254 12.3855 14.6277 10.9441 14.6277 9.02218Z" fill="currentColor"/>
<path id="Vector_2" fill-rule="evenodd" clip-rule="evenodd" d="M38.7582 12.3855C38.7582 13.9337 38.2244 15.2149 37.21 16.2826C36.1957 17.3503 34.9145 17.8308 33.3129 17.8308H21.0342V14.6811H31.2308C31.9249 14.6811 32.5121 14.5209 32.9392 14.2006C33.473 13.8269 33.74 13.3464 33.74 12.7058C33.74 11.211 32.6723 10.4636 30.5902 10.4636H25.4652C23.9704 10.4636 22.6891 9.98312 21.568 9.07557C20.4469 8.16801 19.9131 6.99353 19.9131 5.55211C19.9131 4.00393 20.4469 2.72267 21.568 1.76173C22.6358 0.800791 24.0772 0.32032 25.8923 0.32032H37.6905V3.30992H27.2269C26.7465 3.30992 26.266 3.52346 25.8389 3.89716C25.305 4.27086 25.0915 4.75133 25.0915 5.28519C25.0915 5.87243 25.305 6.40628 25.7855 6.77998C26.266 7.20707 26.7998 7.36723 27.4405 7.36723H33.0993C34.8611 7.36723 36.2491 7.8477 37.2634 8.75525C38.2778 9.66281 38.7582 10.8907 38.7582 12.3855Z" fill="currentColor"/>
<path id="Vector_3" fill-rule="evenodd" clip-rule="evenodd" d="M58.9382 9.02224C58.9382 12.4389 57.9773 14.8413 56.1088 16.3361C54.5606 17.5106 52.3184 18.0978 49.4356 18.0978C46.1791 18.0978 43.7767 17.4038 42.2285 16.0692C40.5202 14.5744 39.666 12.172 39.666 8.86209C39.666 6.13942 40.4134 4.00399 41.9616 2.5092C43.6166 0.85424 46.0723 0.0534554 49.3822 0.0534554C53.0124 0.0534554 55.5216 0.85424 57.0164 2.40242C58.2976 3.79045 58.9382 5.97926 58.9382 9.02224ZM54.4538 8.91547C54.4538 7.20713 54.0268 5.81911 53.226 4.80478C52.3184 3.68368 50.9304 3.09644 49.1687 3.09644C47.4069 3.09644 46.0723 3.68368 45.1647 4.91155C44.4173 5.92588 44.0436 7.26052 44.0436 8.86209C44.0436 10.7306 44.364 12.1186 44.9512 13.0262C45.8054 14.254 47.3002 14.8947 49.5957 14.8947C51.5176 14.8947 52.8523 14.3074 53.5997 13.0796C54.1869 12.2254 54.4538 10.784 54.4538 8.91547Z" fill="currentColor"/>
<path id="Vector_4" fill-rule="evenodd" clip-rule="evenodd" d="M76.5017 10.517H64.4365V17.7774H60.1123V7.04691C60.1123 6.40629 60.2191 5.65889 60.486 4.8581C60.9665 3.41669 61.874 2.34898 63.2087 1.60158C64.7569 0.747405 67.3194 0.32032 70.8428 0.32032C78.3702 0.32032 85.8976 0.32032 93.425 0.32032V3.25653H86.9119V17.7774H82.8546V3.25653C78.6905 3.25653 74.74 3.20315 70.5759 3.20315C68.9743 3.20315 67.8532 3.30992 67.2126 3.47007C66.0915 3.737 65.3441 4.37763 64.8636 5.28519C64.4899 5.9792 64.3298 6.7266 64.3298 7.58077H76.5017V10.517Z" fill="#BBC4D6"/>
</g>
</svg>
