<svg width="95" height="19" viewBox="0 0 95 19" fill="none" xmlns="http://www.w3.org/2000/svg">
<g id="Group">
<path id="Vector" fill-rule="evenodd" clip-rule="evenodd" d="M21.0208 17.8842H16.1093L15.4153 16.9766C14.4543 17.3503 13.6002 17.6173 12.8528 17.8308C12.1054 17.991 11.3046 18.0977 10.397 18.0977C7.40742 18.0977 5.05845 17.3503 3.40349 15.9089C1.64177 14.4141 0.787598 12.1185 0.787598 9.18234C0.787598 6.19274 1.58838 3.89715 3.13657 2.34897C4.73814 0.800785 7.14049 0 10.397 0C13.5468 0 15.9491 0.854171 17.6041 2.50913C19.0455 3.95054 19.7395 5.81904 19.7395 8.06124C19.7395 9.71619 19.6861 10.9441 19.526 11.6915C19.3124 12.8659 18.7786 13.987 18.0312 15.0014L21.0208 17.8842ZM15.4153 9.02218C15.4153 7.42061 15.095 6.13935 14.4009 5.12502C13.5468 3.84377 12.1587 3.20314 10.3436 3.20314C8.63529 3.20314 7.30065 3.68361 6.44648 4.69794C5.59231 5.65888 5.16522 7.10029 5.16522 8.96879C5.16522 11.0508 5.64569 12.599 6.66002 13.56C7.56758 14.4141 8.90222 14.8412 10.6639 14.8412C12.2655 14.8412 13.44 14.3607 14.2408 13.3998C15.0416 12.3855 15.4153 10.9441 15.4153 9.02218Z" fill="currentColor"/>
<path id="Vector_2" fill-rule="evenodd" clip-rule="evenodd" d="M39.5461 12.3855C39.5461 13.9337 39.0122 15.2149 37.9979 16.2826C36.9836 17.3503 35.7023 17.8308 34.1007 17.8308H21.822V14.6811H32.0187C32.7127 14.6811 33.2999 14.5209 33.727 14.2006C34.2609 13.8269 34.5278 13.3464 34.5278 12.7058C34.5278 11.211 33.4601 10.4636 31.3781 10.4636H26.253C24.7582 10.4636 23.477 9.98311 22.3559 9.07556C21.2348 8.168 20.7009 6.99352 20.7009 5.55211C20.7009 4.00392 21.2348 2.72267 22.3559 1.76172C23.4236 0.800783 24.865 0.320312 26.6801 0.320312H38.4783V3.30991H28.0148C27.5343 3.30991 27.0538 3.52345 26.6267 3.89715C26.0929 4.27085 25.8793 4.75132 25.8793 5.28518C25.8793 5.87242 26.0929 6.40628 26.5733 6.77998C27.0538 7.20706 27.5877 7.36722 28.2283 7.36722H33.8872C35.6489 7.36722 37.0369 7.84769 38.0513 8.75524C39.0656 9.6628 39.5461 10.8907 39.5461 12.3855Z" fill="currentColor"/>
<path id="Vector_3" fill-rule="evenodd" clip-rule="evenodd" d="M59.7257 9.02226C59.7257 12.4389 58.7648 14.8413 56.8963 16.3361C55.3481 17.5106 53.1059 18.0978 50.2231 18.0978C46.9665 18.0978 44.5642 17.4038 43.016 16.0692C41.3077 14.5744 40.4535 12.172 40.4535 8.8621C40.4535 6.13943 41.2009 4.004 42.7491 2.50921C44.404 0.854252 46.8598 0.0534668 50.1697 0.0534668C53.7999 0.0534668 56.309 0.854252 57.8038 2.40244C59.0851 3.79046 59.7257 5.97927 59.7257 9.02226ZM55.2413 8.91549C55.2413 7.20714 54.8142 5.81912 54.0134 4.80479C53.1059 3.68369 51.7179 3.09645 49.9561 3.09645C48.1944 3.09645 46.8598 3.68369 45.9522 4.91156C45.2048 5.92589 44.8311 7.26053 44.8311 8.8621C44.8311 10.7306 45.1514 12.1186 45.7387 13.0262C46.5928 14.254 48.0876 14.8947 50.3832 14.8947C52.3051 14.8947 53.6397 14.3074 54.3871 13.0796C54.9744 12.2254 55.2413 10.784 55.2413 8.91549Z" fill="currentColor"/>
<path id="Vector_4" fill-rule="evenodd" clip-rule="evenodd" d="M77.2892 10.517H65.224V17.7774H60.8998V7.04691C60.8998 6.40628 61.0066 5.65888 61.2735 4.85809C61.754 3.41668 62.6615 2.34897 63.9962 1.60157C65.5443 0.747398 68.1068 0.320312 71.6303 0.320312C79.1577 0.320312 86.6851 0.320312 94.2124 0.320312V3.25652H87.6994V17.7774H83.6421V3.25652C79.478 3.25652 75.5274 3.20314 71.3634 3.20314C69.7618 3.20314 68.6407 3.30991 68.0001 3.47007C66.879 3.73699 66.1316 4.37762 65.6511 5.28518C65.2774 5.97919 65.1172 6.72659 65.1172 7.58076H77.2892V10.517Z" fill="currentColor"/>
</g>
</svg>
