<svg width="135" height="27" viewBox="0 0 135 27" fill="none" xmlns="http://www.w3.org/2000/svg">
<g id="Group">
<path id="Vector" fill-rule="evenodd" clip-rule="evenodd" d="M29.2372 25.7898H22.14L21.1372 24.481C19.7486 25.0199 18.5143 25.4049 17.4343 25.7128C16.3543 25.9437 15.1972 26.0977 13.8857 26.0977C9.56572 26.0977 6.17143 25.0199 3.78 22.9414C1.23429 20.7858 0 17.4755 0 13.2413C0 8.93019 1.15714 5.61986 3.39429 3.38731C5.70857 1.15477 9.18 0 13.8857 0C18.4372 0 21.9086 1.23175 24.3 3.61827C26.3829 5.69685 27.3857 8.3913 27.3857 11.6246C27.3857 14.0112 27.3086 15.7818 27.0772 16.8596C26.7686 18.5532 25.9972 20.1699 24.9172 21.6326L29.2372 25.7898ZM21.1372 13.0104C21.1372 10.7008 20.6743 8.85321 19.6714 7.3905C18.4372 5.54288 16.4314 4.61907 13.8086 4.61907C11.34 4.61907 9.41143 5.31192 8.17715 6.77463C6.94286 8.16035 6.32572 10.2389 6.32572 12.9334C6.32572 15.9358 7.02 18.1683 8.48572 19.554C9.79715 20.7858 11.7257 21.4017 14.2714 21.4017C16.5857 21.4017 18.2829 20.7088 19.44 19.3231C20.5972 17.8604 21.1372 15.7818 21.1372 13.0104Z" fill="#BBC4D6"/>
<path id="Vector_2" fill-rule="evenodd" clip-rule="evenodd" d="M56.0063 17.8604C56.0063 20.0929 55.2349 21.9406 53.7692 23.4802C52.3035 25.0199 50.4521 25.7128 48.1378 25.7128H30.3949V21.1707H45.1292C46.1321 21.1707 46.9806 20.9398 47.5978 20.4779C48.3692 19.939 48.7549 19.2461 48.7549 18.3223C48.7549 16.1667 47.2121 15.0889 44.2035 15.0889H36.7978C34.6378 15.0889 32.7863 14.3961 31.1663 13.0874C29.5463 11.7786 28.7749 10.085 28.7749 8.00638C28.7749 5.77384 29.5463 3.92621 31.1663 2.54049C32.7092 1.15477 34.792 0.461914 37.4149 0.461914H54.4635V4.77304H39.3435C38.6492 4.77304 37.9549 5.08098 37.3378 5.61987C36.5663 6.15876 36.2578 6.85162 36.2578 7.62146C36.2578 8.46829 36.5663 9.23813 37.2606 9.77702C37.9549 10.3929 38.7263 10.6239 39.6521 10.6239H47.8292C50.3749 10.6239 52.3806 11.3167 53.8463 12.6254C55.3121 13.9342 56.0063 15.7048 56.0063 17.8604Z" fill="#BBC4D6"/>
<path id="Vector_3" fill-rule="evenodd" clip-rule="evenodd" d="M85.1662 13.0105C85.1662 17.9375 83.7776 21.4018 81.0776 23.5573C78.8405 25.251 75.6005 26.0978 71.4348 26.0978C66.7291 26.0978 63.2576 25.097 61.0205 23.1724C58.5519 21.0168 57.3176 17.5525 57.3176 12.7795C57.3176 8.85331 58.3976 5.77393 60.6348 3.61837C63.0262 1.23185 66.5748 0.0770874 71.3576 0.0770874C76.6033 0.0770874 80.2291 1.23185 82.3891 3.4644C84.2405 5.46599 85.1662 8.62235 85.1662 13.0105ZM78.6862 12.8565C78.6862 10.393 78.0691 8.3914 76.9119 6.9287C75.6005 5.31203 73.5948 4.4652 71.0491 4.4652C68.5033 4.4652 66.5748 5.31203 65.2633 7.08267C64.1833 8.54537 63.6433 10.47 63.6433 12.7795C63.6433 15.474 64.1062 17.4756 64.9548 18.7843C66.1891 20.5549 68.3491 21.4787 71.6662 21.4787C74.4433 21.4787 76.3719 20.6319 77.4519 18.8613C78.3005 17.6295 78.6862 15.551 78.6862 12.8565Z" fill="#BBC4D6"/>
<path id="Vector_4" fill-rule="evenodd" clip-rule="evenodd" d="M110.546 15.1659H93.1114V25.6358H86.8628V10.1619C86.8628 9.23814 87.0171 8.16035 87.4028 7.00559C88.0971 4.92701 89.4085 3.38732 91.3371 2.30954C93.5742 1.07779 97.2771 0.461914 102.369 0.461914C113.246 0.461914 124.123 0.461914 135 0.461914V4.69606H125.589V25.6358H119.726V4.69606C113.709 4.69606 108 4.61907 101.983 4.61907C99.6685 4.61907 98.0485 4.77304 97.1228 5.00399C95.5028 5.38892 94.4228 6.31273 93.7285 7.62146C93.1885 8.62226 92.9571 9.70004 92.9571 10.9318H110.546V15.1659Z" fill="#BBC4D6"/>
</g>
</svg>
