<svg width="96" height="20" viewBox="0 0 96 20" fill="none" xmlns="http://www.w3.org/2000/svg">
<g id="Group" opacity="0.6">
<path id="Vector" fill-rule="evenodd" clip-rule="evenodd" d="M20.8327 19.1173H15.8529L15.1493 18.1971C14.175 18.576 13.309 18.8466 12.5512 19.0631C11.7934 19.2255 10.9815 19.3338 10.0613 19.3338C7.0302 19.3338 4.6486 18.576 2.97066 17.1145C1.18446 15.599 0.31842 13.2715 0.31842 10.2945C0.31842 7.26338 1.13033 4.93591 2.70002 3.36622C4.32384 1.79653 6.75956 0.984619 10.0613 0.984619C13.2548 0.984619 15.6906 1.85066 17.3685 3.5286C18.8299 4.99004 19.5336 6.88449 19.5336 9.15784C19.5336 10.8358 19.4795 12.0807 19.3171 12.8385C19.1006 14.0293 18.5593 15.166 17.8015 16.1944L20.8327 19.1173ZM15.1493 10.1321C15.1493 8.50831 14.8245 7.20926 14.1209 6.18084C13.2548 4.88178 11.8475 4.23226 10.0072 4.23226C8.27513 4.23226 6.92195 4.7194 6.05591 5.74782C5.18987 6.72211 4.75686 8.18355 4.75686 10.078C4.75686 12.189 5.244 13.7587 6.27242 14.7329C7.19258 15.599 8.54576 16.032 10.332 16.032C11.9558 16.032 13.1466 15.5449 13.9585 14.5706C14.7704 13.5421 15.1493 12.0807 15.1493 10.1321Z" fill="#F95A59"/>
<path id="Vector_2" fill-rule="evenodd" clip-rule="evenodd" d="M39.6152 13.5421C39.6152 15.1118 39.0739 16.4108 38.0455 17.4934C37.0171 18.5759 35.7181 19.0631 34.0942 19.0631H21.645V15.8696H31.9833C32.6869 15.8696 33.2823 15.7072 33.7154 15.3824C34.2566 15.0035 34.5273 14.5164 34.5273 13.8668C34.5273 12.3513 33.4447 11.5935 31.3338 11.5935H26.1375C24.622 11.5935 23.3229 11.1064 22.1862 10.1862C21.0496 9.26603 20.5083 8.07523 20.5083 6.6138C20.5083 5.04411 21.0496 3.74505 22.1862 2.77076C23.2688 1.79647 24.7302 1.30933 26.5706 1.30933H38.5327V4.34045H27.9237C27.4366 4.34045 26.9494 4.55696 26.5164 4.93585C25.9752 5.31474 25.7586 5.80189 25.7586 6.34316C25.7586 6.93856 25.9752 7.47983 26.4623 7.85872C26.9494 8.29174 27.4907 8.45412 28.1402 8.45412H33.8777C35.6639 8.45412 37.0712 8.94127 38.0997 9.86143C39.1281 10.7816 39.6152 12.0265 39.6152 13.5421Z" fill="#F95A59"/>
<path id="Vector_3" fill-rule="evenodd" clip-rule="evenodd" d="M60.0753 10.1322C60.0753 13.5963 59.101 16.0321 57.2065 17.5476C55.6368 18.7384 53.3635 19.3338 50.4406 19.3338C47.1388 19.3338 44.7031 18.6302 43.1334 17.277C41.4013 15.7614 40.5353 13.3257 40.5353 9.96982C40.5353 7.20933 41.2931 5.04424 42.8628 3.52867C44.5407 1.85073 47.0306 1.03882 50.3865 1.03882C54.0671 1.03882 56.6111 1.85073 58.1267 3.42042C59.4257 4.82773 60.0753 7.04694 60.0753 10.1322ZM55.5286 10.0239C55.5286 8.29187 55.0955 6.88456 54.2836 5.85614C53.3635 4.71947 51.9562 4.12407 50.17 4.12407C48.3838 4.12407 47.0306 4.71947 46.1104 5.9644C45.3526 6.99282 44.9737 8.346 44.9737 9.96982C44.9737 11.8643 45.2985 13.2716 45.8939 14.1917C46.7599 15.4367 48.2755 16.0862 50.603 16.0862C52.5516 16.0862 53.9047 15.4908 54.6625 14.2459C55.2579 13.3798 55.5286 11.9184 55.5286 10.0239Z" fill="#F95A59"/>
<path id="Vector_4" fill-rule="evenodd" clip-rule="evenodd" d="M77.8828 11.6476H65.65V19.0089H61.2657V8.12936C61.2657 7.47983 61.3739 6.72205 61.6446 5.91014C62.1317 4.44871 63.0519 3.36616 64.4051 2.60838C65.9748 1.74234 68.5729 1.30933 72.1453 1.30933C79.7772 1.30933 87.4092 1.30933 95.0411 1.30933V4.28633H88.4376V19.0089H84.3239V4.28633C80.102 4.28633 76.0966 4.2322 71.8746 4.2322C70.2508 4.2322 69.1141 4.34045 68.4646 4.50283C67.3279 4.77347 66.5702 5.423 66.083 6.34316C65.7041 7.04682 65.5417 7.8046 65.5417 8.67063H77.8828V11.6476Z" fill="#F95A59"/>
</g>
</svg>
