<svg width="32" height="32" viewBox="0 0 32 32" fill="none" xmlns="http://www.w3.org/2000/svg">
<g id="Account" clip-path="url(#clip0_10653_23429)">
<circle id="Ellipse 34" cx="16" cy="16" r="15.1" stroke="currentColor" stroke-width="1.8" stroke-linecap="round"/>
<g id="Intersect">
<mask id="path-2-inside-1_10653_23429" fill="currentColor">
<path fill-rule="evenodd" clip-rule="evenodd" d="M6.66879 23.5452C6.17421 22.9343 6.17421 22.0657 6.66879 21.4548C8.86876 18.7373 12.2317 17 16.0004 17C19.7691 17 23.1321 18.7373 25.332 21.4548C25.8266 22.0657 25.8266 22.9343 25.332 23.5452C23.1321 26.2627 19.7691 28 16.0004 28C12.2317 28 8.86876 26.2627 6.66879 23.5452Z"/>
</mask>
<path fill-rule="evenodd" clip-rule="evenodd" d="M6.66879 23.5452C6.17421 22.9343 6.17421 22.0657 6.66879 21.4548C8.86876 18.7373 12.2317 17 16.0004 17C19.7691 17 23.1321 18.7373 25.332 21.4548C25.8266 22.0657 25.8266 22.9343 25.332 23.5452C23.1321 26.2627 19.7691 28 16.0004 28C12.2317 28 8.86876 26.2627 6.66879 23.5452Z" fill="currentColor"/>
<path d="M25.332 21.4548L23.933 22.5874L25.332 21.4548ZM25.332 23.5452L23.933 22.4126L25.332 23.5452ZM8.0678 22.5874C9.9407 20.2739 12.7978 18.8 16.0004 18.8V15.2C11.6656 15.2 7.79682 17.2007 5.26978 20.3222L8.0678 22.5874ZM16.0004 18.8C19.2031 18.8 22.0601 20.2739 23.933 22.5874L26.7311 20.3222C24.204 17.2007 20.3352 15.2 16.0004 15.2V18.8ZM23.933 22.4126C22.0601 24.7261 19.2031 26.2 16.0004 26.2V29.8C20.3352 29.8 24.204 27.7993 26.7311 24.6778L23.933 22.4126ZM16.0004 26.2C12.7978 26.2 9.94069 24.7261 8.0678 22.4126L5.26978 24.6778C7.79682 27.7993 11.6656 29.8 16.0004 29.8V26.2ZM23.933 22.5874C23.893 22.5379 23.893 22.4621 23.933 22.4126L26.7311 24.6778C27.7603 23.4065 27.7603 21.5935 26.7311 20.3222L23.933 22.5874ZM5.26978 20.3222C4.24054 21.5935 4.24054 23.4065 5.26978 24.6778L8.0678 22.4126C8.10787 22.4621 8.10787 22.5379 8.0678 22.5874L5.26978 20.3222Z" fill="currentColor" mask="url(#path-2-inside-1_10653_23429)"/>
</g>
<circle id="Ellipse 35" cx="16" cy="10" r="4.1" fill="currentColor" stroke="currentColor" stroke-width="1.8" stroke-linecap="round"/>
</g>
<defs>
<clipPath id="clip0_10653_23429">
<rect width="32" height="32" fill="currentColor"/>
</clipPath>
</defs>
</svg>
