<svg width="36" height="36" viewBox="0 0 36 36" fill="none" xmlns="http://www.w3.org/2000/svg">
<g id="right-arrow (6) 2">
<g id="Group">
<g id="Group_2">
<g id="Group_3">
<g id="Group_4">
<path id="Vector" d="M28.5 18.8438H7.5C7.03404 18.8438 6.65625 18.466 6.65625 18C6.65625 17.534 7.03404 17.1562 7.5 17.1562H28.5C28.9659 17.1562 29.3437 17.534 29.3437 18C29.3437 18.466 28.9659 18.8438 28.5 18.8438Z" fill="currentColor"/>
</g>
<g id="Group_5">
<path id="Vector_2" d="M21.5015 24.4891C21.2552 24.4891 21.011 24.3818 20.8443 24.1751C20.5517 23.8124 20.6086 23.2812 20.9713 22.9886L27.1562 17.9999L20.9713 13.0113C20.6086 12.7187 20.5518 12.1875 20.8443 11.8248C21.1368 11.4621 21.668 11.4053 22.0307 11.6978L29.0298 17.3431C29.2284 17.5033 29.3439 17.7448 29.3439 17.9999C29.3439 18.255 29.2284 18.4964 29.0298 18.6566L22.0307 24.302C21.8748 24.4279 21.6875 24.4891 21.5015 24.4891Z" fill="currentColor"/>
</g>
</g>
</g>
</g>
</g>
</svg>
