<svg width="15" height="8" viewBox="0 0 15 8" fill="none" xmlns="http://www.w3.org/2000/svg">
<g id="Group 1306">
<g id="Intersect">
<mask id="path-1-inside-1_23348_2654" fill="currentColor">
<path fill-rule="evenodd" clip-rule="evenodd" d="M0.903506 4.48987C0.702412 4.19384 0.702412 3.80616 0.903506 3.51013C2.34263 1.39167 4.77165 0 7.52572 0C10.2798 0 12.7088 1.39167 14.1479 3.51014C14.349 3.80616 14.349 4.19385 14.1479 4.48987C12.7088 6.60833 10.2798 8 7.52572 8C4.77165 8 2.34263 6.60833 0.903506 4.48987Z"/>
</mask>
<path d="M14.1479 3.51014L13.3208 4.07206L14.1479 3.51014ZM14.1479 4.48987L13.3208 3.92794L14.1479 4.48987ZM1.73069 4.07206C2.99162 2.21591 5.11683 1 7.52572 1V-1C4.42648 -1 1.69363 0.567426 0.0763183 2.94821L1.73069 4.07206ZM7.52572 1C9.93461 1 12.0598 2.21591 13.3208 4.07206L14.9751 2.94821C13.3578 0.567429 10.625 -1 7.52572 -1V1ZM13.3208 3.92794C12.0598 5.78409 9.93461 7 7.52572 7V9C10.625 9 13.3578 7.43257 14.9751 5.05179L13.3208 3.92794ZM7.52572 7C5.11683 7 2.99162 5.78409 1.73069 3.92794L0.0763183 5.05179C1.69363 7.43257 4.42648 9 7.52572 9V7ZM13.3208 4.07206C13.2914 4.0289 13.2914 3.97111 13.3208 3.92794L14.9751 5.05179C15.4066 4.41659 15.4066 3.58342 14.9751 2.94821L13.3208 4.07206ZM0.0763183 2.94821C-0.355192 3.58342 -0.355192 4.41658 0.0763183 5.05179L1.73069 3.92794C1.76002 3.9711 1.76002 4.0289 1.73069 4.07206L0.0763183 2.94821Z" fill="currentColor" mask="url(#path-1-inside-1_23348_2654)"/>
</g>
<circle id="Ellipse 156" cx="7.52563" cy="4" r="3.5" stroke="currentColor"/>
<circle id="Ellipse 157" cx="7.52563" cy="4" r="1" fill="currentColor"/>
</g>
</svg>
