<svg width="24" height="24" viewBox="0 0 24 24" fill="none" xmlns="http://www.w3.org/2000/svg">
<g id="fa-regular:star">
<path id="Vector" d="M21.9245 8.71768L16.1897 7.88576L13.6265 2.71452C13.1673 1.79276 11.8366 1.78104 11.3735 2.71452L8.81029 7.88576L3.07553 8.71768C2.04712 8.8661 1.63497 10.1277 2.38077 10.8502L6.52973 14.8732L5.54842 20.5561C5.37179 21.5833 6.45908 22.3527 7.36973 21.8723L12.5 19.189L17.6303 21.8723C18.5409 22.3488 19.6282 21.5833 19.4516 20.5561L18.4703 14.8732L22.6192 10.8502C23.365 10.1277 22.9529 8.8661 21.9245 8.71768ZM16.4488 14.217L17.3791 19.6226L12.5 17.0721L7.62094 19.6226L8.55122 14.217L4.60244 10.3894L10.0585 9.60039L12.5 4.67912L14.9415 9.60039L20.3976 10.3894L16.4488 14.217Z" fill="currentColor"/>
</g>
</svg>
