<svg width="76" height="24" viewBox="0 0 76 24" fill="none" xmlns="http://www.w3.org/2000/svg">
<g id="sber-eapteka-logo 3" clip-path="url(#clip0_10663_35384)">
<path id="Vector" d="M30.4598 15.7715L33.8514 23.9994H32.2852L31.4963 22.048H27.716L26.9386 23.9994H25.4443L28.787 15.7715H30.4598ZM28.2457 20.6973H30.955L29.6018 17.3234L28.2457 20.6973Z" fill="#8168F0"/>
<path id="Vector_2" d="M40.8795 17.1261H36.4888V24.0004H35.0176V15.7725H42.3536V24.0004H40.8824V17.1261H40.8795Z" fill="#8168F0"/>
<path id="Vector_3" d="M50.5686 17.1251H47.7905V23.9995H46.319V17.1251H43.5869V15.7744H50.5686V17.1251Z" fill="#8168F0"/>
<path id="Vector_4" d="M57.07 20.4396H53.2781V22.6497H57.6342V24.0004H51.8066V15.7725H57.5045V17.1232H53.2781V19.086H57.07V20.4396Z" fill="#8168F0"/>
<path id="Vector_5" d="M24.2006 20.4396H20.4087V22.6497H24.7649V24.0004H18.9375V15.7725H24.6353V17.1232H20.4087V19.086H24.2006V20.4396Z" fill="#8168F0"/>
<path id="Vector_6" d="M60.8578 24.0004H59.3867V15.7725H60.8578V19.2269H62.0931L64.7419 15.7725H66.5324L63.3885 19.6867L67.0391 24.0004H65.1563L62.1648 20.4396H60.8578V24.0004Z" fill="#8168F0"/>
<path id="Vector_7" d="M72.2007 15.7725L75.5923 24.0004H74.0264L73.2372 22.049H69.457L68.6798 24.0004H67.1855L70.5283 15.7725H72.2007ZM69.9868 20.6983H72.6962L71.3428 17.3244L69.9868 20.6983Z" fill="#8168F0"/>
<path id="Vector_8" d="M22.2644 9.51301C22.7975 9.51601 23.3226 9.38409 23.7912 9.12944L24.1832 8.91678L25.3276 9.76154C24.5725 10.5715 23.4596 11.0167 22.1847 11.0167C20.966 11.0167 19.852 10.5833 19.0552 9.80281C18.2584 9.02229 17.8193 7.93754 17.8193 6.75896C17.8193 5.58044 18.2648 4.51171 19.06 3.75908C19.8552 3.00644 20.9687 2.5918 22.1959 2.5918C23.3275 2.5918 24.3169 2.93626 25.0575 3.5882L25.1415 3.65945L23.873 4.59584C23.4043 4.26007 22.8406 4.08343 22.2644 4.09175C20.6702 4.09175 19.513 5.23171 19.513 6.80238C19.513 8.37305 20.6702 9.51301 22.2644 9.51301Z" fill="#21A038"/>
<path id="Vector_9" fill-rule="evenodd" clip-rule="evenodd" d="M30.7467 5.89795H28.5947V4.06479H32.0296L33.881 2.69824H26.8262V10.9078H30.5162C32.5874 10.9078 33.7751 9.96767 33.7751 8.32894C33.7772 6.76152 32.7007 5.89795 30.7467 5.89795ZM30.4386 9.54068H28.5947V7.26505H30.4386C31.5617 7.26505 32.0836 7.64592 32.0836 8.40291C32.0836 9.17644 31.528 9.54068 30.4386 9.54068Z" fill="#21A038"/>
<path id="Vector_10" d="M41.6203 2.69824L39.7689 4.06479H37.1924V6.07208H40.9695V7.43918H37.1924V9.54068H41.6203V10.9078H35.4238V2.69824H41.6203Z" fill="#21A038"/>
<path id="Vector_11" fill-rule="evenodd" clip-rule="evenodd" d="M43.2676 2.69824H46.6416C48.7941 2.69824 50.1303 3.82373 50.1303 5.63601C50.1303 7.44827 48.7928 8.58231 46.6403 8.58231H45.0362V10.9078H43.2676V2.69824ZM45.0362 7.21521H46.6034C47.7365 7.21521 48.36 6.65597 48.36 5.6403C48.36 4.62462 47.7365 4.06479 46.6034 4.06479H45.0362V7.21521Z" fill="#21A038"/>
<path id="Vector_12" d="M12.2245 2.66504C12.5466 3.08353 12.8221 3.54079 13.0423 4.02822L6.8245 8.63428L4.22656 6.99748V5.02841L6.8245 6.66517L12.2245 2.66504Z" fill="#21A038"/>
<path id="Vector_13" d="M1.57655 6.85814C1.57655 6.76981 1.5787 6.68204 1.58299 6.59478L0.00857426 6.51562C0.00321547 6.62924 0 6.74345 0 6.85814C0 8.75187 0.763628 10.4668 1.99883 11.7082L3.11506 10.5863C2.16548 9.63082 1.57655 8.31237 1.57655 6.85814Z" fill="url(#paint0_linear_10663_35384)"/>
<path id="Vector_14" d="M6.82461 1.58401C6.9125 1.58401 6.99984 1.58724 7.08666 1.59155L7.16545 0.00861771C7.05235 0.00323177 6.93874 0 6.82461 0C4.94045 0 3.23423 0.767499 1.99902 2.00896L3.11526 3.13085C4.06591 2.17539 5.37773 1.58401 6.82461 1.58401Z" fill="url(#paint1_linear_10663_35384)"/>
<path id="Vector_15" d="M6.82424 12.1332C6.73635 12.1332 6.64901 12.1311 6.56219 12.1268L6.4834 13.7092C6.59645 13.7145 6.71007 13.7178 6.82424 13.7178C8.70835 13.7178 10.4146 12.9503 11.6498 11.7088L10.5336 10.5869C9.58291 11.5413 8.27107 12.1332 6.82424 12.1332Z" fill="url(#paint2_linear_10663_35384)"/>
<path id="Vector_16" d="M9.78276 2.50446L11.1101 1.52153C9.93871 0.569833 8.44791 0 6.82422 0V1.58455C7.92115 1.58401 8.93985 1.9244 9.78276 2.50446Z" fill="url(#paint3_linear_10663_35384)"/>
<path id="Vector_17" d="M13.6485 6.85796C13.6485 6.43839 13.611 6.02799 13.5392 5.62891L12.0704 6.71684C12.0714 6.76372 12.0725 6.81056 12.0725 6.85741C12.0725 8.40588 11.4048 9.80084 10.3438 10.7665L11.4032 11.9434C12.782 10.689 13.6485 8.87499 13.6485 6.85796Z" fill="#21A038"/>
<path id="Vector_18" d="M6.82398 12.133C5.28333 12.133 3.8954 11.4619 2.93457 10.3955L1.76367 11.4603C3.01227 12.8466 4.81711 13.7175 6.82398 13.7175V12.133Z" fill="url(#paint4_linear_10663_35384)"/>
<path id="Vector_19" d="M3.3053 2.94929L2.24587 1.77246C0.866516 3.02739 0 4.84139 0 6.85842H1.57655C1.57709 5.30944 2.24426 3.91499 3.3053 2.94929Z" fill="url(#paint5_linear_10663_35384)"/>
</g>
<defs>
<linearGradient id="paint0_linear_10663_35384" x1="2.31814" y1="11.5096" x2="0.580021" y2="6.51076" gradientUnits="userSpaceOnUse">
<stop offset="0.1444" stop-color="#F2E913"/>
<stop offset="0.3037" stop-color="#E7E518"/>
<stop offset="0.5823" stop-color="#CADB26"/>
<stop offset="0.891" stop-color="#A3CD39"/>
</linearGradient>
<linearGradient id="paint1_linear_10663_35384" x1="2.4496" y1="2.28906" x2="6.89168" y2="0.604816" gradientUnits="userSpaceOnUse">
<stop offset="0.0592" stop-color="#0FA8E0"/>
<stop offset="0.5385" stop-color="#0099F9"/>
<stop offset="0.9234" stop-color="#0291EB"/>
</linearGradient>
<linearGradient id="paint2_linear_10663_35384" x1="6.37936" y1="12.7615" x2="11.3987" y2="11.6328" gradientUnits="userSpaceOnUse">
<stop offset="0.1226" stop-color="#A3CD39"/>
<stop offset="0.2846" stop-color="#86C339"/>
<stop offset="0.8693" stop-color="#21A038"/>
</linearGradient>
<linearGradient id="paint3_linear_10663_35384" x1="6.49437" y1="0.530726" x2="10.7874" y2="1.84864" gradientUnits="userSpaceOnUse">
<stop offset="0.0566" stop-color="#0291EB"/>
<stop offset="0.79" stop-color="#0C8ACB"/>
</linearGradient>
<linearGradient id="paint4_linear_10663_35384" x1="2.15911" y1="11.2672" x2="6.83379" y2="13.005" gradientUnits="userSpaceOnUse">
<stop offset="0.1324" stop-color="#F2E913"/>
<stop offset="0.2977" stop-color="#EBE716"/>
<stop offset="0.5306" stop-color="#D9E01F"/>
<stop offset="0.8023" stop-color="#BBD62D"/>
<stop offset="0.9829" stop-color="#A3CD39"/>
</linearGradient>
<linearGradient id="paint5_linear_10663_35384" x1="0.58757" y1="7.05034" x2="2.47827" y2="2.15673" gradientUnits="userSpaceOnUse">
<stop offset="0.0698" stop-color="#A3CD39"/>
<stop offset="0.2599" stop-color="#81C55F"/>
<stop offset="0.9216" stop-color="#0FA8E0"/>
</linearGradient>
<clipPath id="clip0_10663_35384">
<rect width="76" height="24" fill="white"/>
</clipPath>
</defs>
</svg>
